HIERARCHY
ROOT Hips
{
	OFFSET 0.000000 0.000000 0.000000
	CHANNELS 6 Xposition Yposition Zposition Zrotation Yrotation Xrotation 
	JOINT LHipJoint
	{
		OFFSET 0.000000 0.000000 0.000000
		CHANNELS 3 Zrotation Yrotation Xrotation
		JOINT LeftUpLeg
		{
			OFFSET 1.363060 -1.794630 0.839290
			CHANNELS 3 Zrotation Yrotation Xrotation
			JOINT LeftLeg
			{
				OFFSET 2.448110 -6.726130 0.000000
				CHANNELS 3 Zrotation Yrotation Xrotation
				JOINT LeftFoot
				{
					OFFSET 2.562200 -7.039590 0.000000
					CHANNELS 3 Zrotation Yrotation Xrotation
					JOINT LeftToeBase
					{
						OFFSET 0.157640 -0.433110 2.322550
						CHANNELS 3 Zrotation Yrotation Xrotation
						End Site
						{
							OFFSET 0.000000 0.000000 0.000000
						}
					}
				}
			}
		}
	}
	JOINT RHipJoint
	{
		OFFSET 0.000000 0.000000 0.000000
		CHANNELS 3 Zrotation Yrotation Xrotation
		JOINT RightUpLeg
		{
			OFFSET -1.305520 -1.794630 0.839290
			CHANNELS 3 Zrotation Yrotation Xrotation
			JOINT RightLeg
			{
				OFFSET -2.542530 -6.985550 0.000000
				CHANNELS 3 Zrotation Yrotation Xrotation
				JOINT RightFoot
				{
					OFFSET -2.568260 -7.056230 0.000000
					CHANNELS 3 Zrotation Yrotation Xrotation
					JOINT RightToeBase
					{
						OFFSET -0.164730 -0.452590 2.363150
						CHANNELS 3 Zrotation Yrotation Xrotation
						End Site
						{
							OFFSET 0.000000 0.000000 0.000000
						}
					}
				}
			}
		}
	}
	JOINT LowerBack
	{
		OFFSET 0.000000 0.000000 0.000000
		CHANNELS 3 Zrotation Yrotation Xrotation
		JOINT Spine
		{
			OFFSET 0.028270 2.035590 -0.193380
			CHANNELS 3 Zrotation Yrotation Xrotation
			JOINT Spine1
			{
				OFFSET 0.056720 2.048850 -0.042750
				CHANNELS 3 Zrotation Yrotation Xrotation
				JOINT Neck
				{
					OFFSET 0.000000 0.000000 0.000000
					CHANNELS 3 Zrotation Yrotation Xrotation
					JOINT Neck1
					{
						OFFSET -0.054170 1.746240 0.172020
						CHANNELS 3 Zrotation Yrotation Xrotation
						JOINT Head
						{
							OFFSET 0.104070 1.761360 -0.123970
							CHANNELS 3 Zrotation Yrotation Xrotation
							End Site
							{
								OFFSET 0.000000 0.000000 0.000000
							}
						}
					}
				}
				JOINT LeftShoulder
				{
					OFFSET 0.000000 0.000000 0.000000
					CHANNELS 3 Zrotation Yrotation Xrotation
					JOINT LeftArm
					{
						OFFSET 3.362410 1.200890 -0.311210
						CHANNELS 3 Zrotation Yrotation Xrotation
						JOINT LeftForeArm
						{
							OFFSET 4.983000 -0.000000 -0.000000
							CHANNELS 3 Zrotation Yrotation Xrotation
							JOINT LeftHand
							{
								OFFSET 3.483560 -0.000000 -0.000000
								CHANNELS 3 Zrotation Yrotation Xrotation
								JOINT LeftFingerBase
								{
									OFFSET 0.000000 0.000000 0.000000
									CHANNELS 3 Zrotation Yrotation Xrotation
									JOINT LeftHandIndex1
									{
										OFFSET 0.715260 -0.000000 -0.000000
										CHANNELS 3 Zrotation Yrotation Xrotation
										End Site
										{
											OFFSET 0.000000 0.000000 0.000000
										}
									}
								}
								JOINT LThumb
								{
									OFFSET 0.000000 0.000000 0.000000
									CHANNELS 3 Zrotation Yrotation Xrotation
									End Site
									{
										OFFSET 0.000000 0.000000 0.000000
									}
								}
							}
						}
					}
				}
				JOINT RightShoulder
				{
					OFFSET 0.000000 0.000000 0.000000
					CHANNELS 3 Zrotation Yrotation Xrotation
					JOINT RightArm
					{
						OFFSET -3.136600 1.374050 -0.404650
						CHANNELS 3 Zrotation Yrotation Xrotation
						JOINT RightForeArm
						{
							OFFSET -5.241900 -0.000000 -0.000000
							CHANNELS 3 Zrotation Yrotation Xrotation
							JOINT RightHand
							{
								OFFSET -3.444170 -0.000000 -0.000000
								CHANNELS 3 Zrotation Yrotation Xrotation
								JOINT RightFingerBase
								{
									OFFSET 0.000000 0.000000 0.000000
									CHANNELS 3 Zrotation Yrotation Xrotation
									JOINT RightHandIndex1
									{
										OFFSET -0.622530 -0.000000 -0.000000
										CHANNELS 3 Zrotation Yrotation Xrotation
										End Site
										{
											OFFSET 0.000000 0.000000 0.000000
										}
									}
								}
								JOINT RThumb
								{
									OFFSET 0.000000 0.000000 0.000000
									CHANNELS 3 Zrotation Yrotation Xrotation
									End Site
									{
										OFFSET 0.000000 0.000000 0.000000
									}
								}
							}
						}
					}
				}
			}
		}
	}
}
MOTION
Frames: 7
Frame Time: 0.008333
9.770586 18.030691 26.870298 -177.973651 3.755537 -176.268931 0.945518 3.489491 1.946408 -18.837826 -20.541735 -4.578632 -3.037769 6.624768 19.144716 -4.354106 15.411289 -8.078995 1.326900 -7.295000 -20.592200 -5.228494 -3.648549 0.871883 29.002231 17.412746 -0.067342 3.142249 -4.978294 16.816705 4.963534 -21.839320 -13.923385 -0.001400 -0.244500 0.671700 3.562594 0.524491 5.588609 1.815020 0.920345 8.258233 -4.832972 0.390110 -13.990444 -8.599024 -1.934169 -17.520097 15.774396 -2.889882 6.543660 2.993300 -1.179100 3.342000 -1.055441 -10.495286 1.627290 -85.999198 8.528537 23.940888 23.527751 -22.747223 -5.514360 1.692996 0.498975 12.351012 0.960265 -33.998926 0.323300 -7.125000 0.000000 0.000000 -18.113900 -3.393400 20.164700 0.081019 9.822539 2.491537 84.996410 -9.620732 39.886170 -21.942879 24.426174 -5.907685 0.667054 -0.793538 24.568151 -10.061758 -54.254048 8.907600 7.125000 0.000000 0.000000 -13.683700 8.285300 -168.076600 
9.771165 18.032196 26.871108 -177.972714 3.783402 -176.205462 0.961631 3.461068 1.905410 -18.834406 -20.450566 -4.703662 -3.024205 6.666341 19.243666 -4.326543 15.344113 -8.147740 1.379300 -7.431800 -21.001100 -5.218539 -3.627947 0.838694 28.967516 17.351635 -0.206304 3.128200 -5.020964 16.909080 4.914858 -21.679401 -13.932091 -0.001200 -0.225100 0.618500 3.495076 0.511824 6.018507 1.919623 0.927340 7.843949 -4.826901 0.387451 -14.231641 -8.707415 -1.946856 -17.559950 15.846650 -2.906831 6.790086 3.035500 -1.167900 3.409100 -1.091702 -10.455123 1.649348 -86.091370 8.661695 23.704571 23.474914 -22.697707 -5.500182 1.694553 0.504754 12.461345 1.083907 -34.220906 0.253200 -7.125000 0.000000 0.000000 -18.051900 -3.625100 20.158300 0.102666 9.819178 2.528979 84.947301 -9.885535 39.825160 -21.959164 24.423389 -5.882430 0.655795 -0.804847 24.624836 -11.530536 -53.454389 9.994200 7.125000 0.000000 0.000000 -13.027700 8.730200 -168.799300 
9.772091 18.031733 26.872846 -177.965253 3.880623 -176.120948 0.967725 3.427249 1.880520 -18.791734 -20.282345 -4.907938 -3.008068 6.707527 19.338505 -4.281511 15.216847 -8.135576 1.386200 -7.449600 -21.054400 -5.213572 -3.604070 0.820264 28.925053 17.290958 -0.403613 3.110796 -5.072020 17.022407 4.832135 -21.406976 -13.960062 -0.005400 -0.474700 1.304300 3.484943 0.519148 6.208842 1.942123 0.949222 7.660956 -4.841601 0.395159 -14.332690 -8.828692 -1.922937 -17.515246 16.023972 -2.883641 6.822809 3.109400 -1.150100 3.411500 -1.103657 -10.449305 1.657189 -86.167848 8.698810 23.424781 23.446075 -22.673596 -5.487959 1.697851 0.501953 12.651863 1.099721 -34.265068 0.244900 -7.125000 0.000000 0.000000 -18.044900 -3.671500 20.163600 0.118906 9.808321 2.541324 84.932702 -9.940905 39.577834 -22.002033 24.462008 -5.882914 0.644286 -0.813976 25.089191 -12.060504 -53.120287 10.373800 7.125000 0.000000 0.000000 -12.781700 8.929600 -169.074400 
9.771975 18.028954 26.872267 -177.926191 4.020117 -176.032468 0.981835 3.392223 1.860225 -18.727863 -20.021095 -5.145953 -2.986853 6.750859 19.439025 -4.244120 15.099644 -8.008796 1.354800 -7.368100 -20.810600 -5.211567 -3.579000 0.801998 28.931133 17.321609 -0.571229 3.091815 -5.131455 17.146649 4.795050 -21.279823 -13.913311 -0.010200 -0.652000 1.791700 3.483719 0.540697 6.320162 2.011098 0.985458 7.500793 -4.866791 0.408442 -14.379099 -8.782392 -1.907024 -17.298830 15.943166 -2.880726 6.698347 3.072100 -1.163800 3.333700 -1.123789 -10.444394 1.657931 -86.271666 8.733717 23.141328 23.433287 -22.669661 -5.485498 1.702180 0.499115 12.812196 1.066756 -34.352786 0.265800 -7.125000 0.000000 0.000000 -18.064900 -3.754100 20.213200 0.118675 9.801231 2.551844 84.948189 -9.940504 39.398127 -21.880381 24.361142 -5.893944 0.682509 -0.790010 24.943258 -7.311250 -54.651858 6.725100 7.125000 0.000000 0.000000 -14.797400 8.445300 -167.086300 
9.771975 18.027216 26.873077 -177.919649 4.065162 -175.932666 1.000187 3.351703 1.821828 -18.690041 -19.803774 -5.371013 -2.963101 6.798520 19.556178 -4.125200 14.759772 -7.916389 1.223400 -7.015300 -19.760700 -5.206057 -3.551347 0.766189 28.907044 17.304092 -0.757487 3.069827 -5.198850 17.285694 4.787971 -21.244124 -13.827743 -0.005100 -0.460700 1.266000 3.405581 0.525499 6.634865 2.103515 0.980608 7.115467 -4.837196 0.402395 -14.547556 -8.622713 -1.939303 -17.228057 15.693128 -2.932647 6.779364 2.969800 -1.191100 3.325500 -1.163943 -10.402976 1.676451 -86.360721 8.871825 22.986957 23.425224 -22.667138 -5.488511 1.704346 0.499122 12.899481 1.027309 -34.492577 0.290000 -7.125000 0.000000 0.000000 -18.088400 -3.886000 20.281900 0.129978 9.811332 2.581434 84.951186 -10.090170 39.371524 -21.806563 24.259257 -5.838804 0.678425 -0.795732 24.776920 -8.709056 -54.040504 7.799600 7.125000 0.000000 0.000000 -14.210100 8.748400 -167.722500 
9.771860 18.027448 26.873425 -177.923241 4.060486 -175.913619 0.999066 3.334214 1.855436 -18.640850 -19.559190 -5.607678 -2.937757 6.840089 19.664195 -4.057069 14.552333 -7.762298 1.251600 -7.092900 -19.990800 -5.208626 -3.537351 0.795177 28.879540 17.216089 -0.958476 3.038261 -5.271656 17.463738 4.768288 -21.151405 -13.713248 -0.001200 -0.221300 0.608100 3.455690 0.486421 6.281133 2.042502 0.903842 7.639864 -4.828805 0.374912 -14.371144 -8.487529 -1.926610 -17.410922 15.541627 -2.894820 6.593660 2.903800 -1.187700 3.303800 -1.136546 -10.435579 1.642432 -86.357105 8.551824 22.818243 23.375616 -22.614685 -5.462870 1.705819 0.501452 13.027632 1.240876 -34.476284 0.165600 -7.125000 0.000000 0.000000 -17.976200 -3.897000 20.145900 0.101981 9.827429 2.541635 84.934256 -9.775524 39.372343 -21.711114 24.146480 -5.797681 0.681171 -0.798142 24.751746 -8.970188 -53.963958 8.005500 7.125000 0.000000 0.000000 -14.099200 8.767900 -167.830400 
9.771860 18.026985 26.872151 -177.908473 4.040283 -175.796469 1.014890 3.292364 1.828717 -18.589736 -19.271809 -5.901004 -2.918290 6.884010 19.749543 -4.074490 14.587124 -7.563623 1.473600 -7.670700 -21.718100 -5.201654 -3.505561 0.777803 28.847948 17.163689 -1.234969 3.005232 -5.370072 17.685126 4.719441 -20.995487 -13.737938 -0.003800 -0.396800 1.090200 3.431697 0.449389 6.358389 2.123028 0.857473 7.506664 -4.821069 0.350600 -14.410656 -8.411858 -1.907082 -17.470408 15.381359 -2.861084 6.606721 2.844400 -1.174600 3.304400 -1.161163 -10.422721 1.643378 -86.450107 8.542448 22.657816 23.320388 -22.544040 -5.429639 1.702882 0.504499 13.165020 1.513197 -34.311570 0.004700 -7.125000 0.000000 0.000000 -17.827900 -3.772900 19.925600 0.102963 9.836802 2.557326 84.881559 -9.805987 39.452250 -21.677889 24.104901 -5.782961 0.683212 -0.799235 24.724082 -8.896574 -53.908338 7.942000 7.125000 0.000000 0.000000 -14.124700 8.834900 -167.826400 
